# xmcd
#
# Track frame offsets:
#	150
#	18105
#	35024
#	53530
#
# Disc length: 1000 seconds
#
# Revision: 0
# Processed by: cddbd v1.5.1PL2 Copyright (c) Steve Scherf et al.
# Submitted via: audiograbber 1.83.01
#
DISCID=2403e604
DTITLE=Abi - Thanking You
DYEAR=1999
DGENRE=Pop
TTITLE0=Thanking You (Roshere Mix)
TTITLE1=Thanking You (Hige Society Mix)
TTITLE2=Thanking You (Original Mix)
TTITLE3=Thanking You (Local Society Mix)
EXTD=
EXTT0=
EXTT1=
EXTT2=
EXTT3=
PLAYORDER=
